<?xml version="1.0" encoding="utf-8"?>
<svg version="1.1" id="Layer_1" xmlns="http://www.w3.org/2000/svg" xmlns:xlink="http://www.w3.org/1999/xlink" x="0px" y="0px"
	 viewBox="0 0 647.8 194.8" enable-background="new 0 0 647.8 194.8" xml:space="preserve">
<g>
	<polygon fill="#356044" points="177.8,32 168.2,3 164.7,3 155.1,32 145.3,3.3 145.2,3.1 140.4,3.1 153.1,38.9 153.2,39.1 
		156.8,39.1 166.4,10.9 175.8,38.9 175.9,39.1 179.6,39.1 192.2,3.4 192.3,3.1 187.7,3.1 	"/>
	<rect x="199" y="2.4" fill="#356044" width="4.8" height="4.7"/>
	<rect x="199.2" y="12.3" fill="#356044" width="4.3" height="26.5"/>
	<path fill="#356044" d="M226.4,11.8c-3.7,0-6.6,1.5-8.7,4.6v-4h-4.3v26.5h4.3V23.7c0-4.7,3.1-8,7.6-8c4.4,0,7,2.9,7,7.6v15.4h4.3
		V22.4C236.6,16,232.6,11.8,226.4,11.8z"/>
	<path fill="#356044" d="M266.6,16.9c-2.5-3.4-5.8-5.1-9.8-5.1c-6.1,0-12.6,4.8-12.6,13.8c0,8.9,6.5,13.8,12.6,13.8
		c3.9,0,7.1-1.7,9.8-5.3v4.8h4.3V1.6h-4.3V16.9z M257.5,35.5c-5.2,0-9-4.2-9-9.9c0-5.8,3.7-9.9,9-9.9c4.5,0,9.2,3.7,9.2,9.9
		C266.7,31.8,262.1,35.5,257.5,35.5z"/>
	<path fill="#356044" d="M293.4,11.8c-3.7,0-6.6,1.5-8.7,4.6V1.6h-4.3v37.2h4.3V23.7c0-4.7,3.1-8,7.6-8c4.4,0,7,2.9,7,7.6v15.4h4.3
		V22.4C303.6,16,299.6,11.8,293.4,11.8z"/>
	<path fill="#356044" d="M322.7,12c-4.2,0-7.2,1.1-9.6,2.2l-0.2,0.1l1.3,3.6l0.2-0.1c2.1-1,4.6-1.9,7.8-1.9c4.9,0,7.5,2.4,7.5,6.9
		v0.6c-2-0.5-4.3-1-7.8-1c-7.1,0-11.3,3.2-11.3,8.7c0,4,3.1,8.4,9.9,8.4c4.7,0,7.5-2.1,9.2-4.1v3.5h4.1V22.7
		C334,15.8,330,12,322.7,12z M329.9,26.7V29c0,3.9-3.7,6.8-8.5,6.8c-3.1,0-6.3-1.6-6.3-5c0-3.3,2.8-5.2,7.4-5.2
		C325,25.6,327.4,25.9,329.9,26.7z"/>
	<path fill="#356044" d="M373.2,11.8c-3.9,0-6.9,1.6-9.1,5c-1.7-3.2-4.6-5-8.4-5c-4.3,0-6.6,2.2-8.2,4.5v-3.9h-4.3v26.5h4.3V23.7
		c0-4.6,3-8,7-8c4.1,0,6.5,2.8,6.5,7.5v15.5h4.2V23.6c0-5.4,3.5-7.8,7-7.8c4.2,0,6.5,2.8,6.5,7.6v15.4h4.3V22.5
		C383,15.9,379.3,11.8,373.2,11.8z"/>
</g>
<path fill="#356044" d="M642,103.7c-15.6,21.6-37.3,27.7-37.3,27.7c21-10.6,9-43.8,8.2-55.3c-0.8-10,4-11.6,3.7-14.1
	c0.2,0,0.3,0,0.5,0.1c0,0-0.3-0.5-0.9-1.3c0,0,0-0.1-0.1-0.1c-0.1-0.1-0.1-0.1-0.2-0.2c-0.2-0.3-0.5-0.6-0.9-0.9c0,0,0,0,0,0
	c-2.8-2.5-8.3-5.2-16.1,2.4c-4.7,4.6-5.1,10.2-3.7,16.1c-4.4,6.3-10.2,14-16.6,21.5c-5.5,5.8-34.2,35.2-40.9,31.2
	c-7.5-4.4,13.8-38.2,21.7-47.5c7.8-9.3,4.6-23.9-2.8-22.5c-4.2,0.8-17.2,7.3-28.1,10.6c0-0.1,0-0.2,0-0.3
	c-0.6-10.4-7.6-15.7-16.4-12.1c-8.8,3.6-13.2,20-1.2,26.9c0.6,0.3,1.3,0.6,2,0.8c-15.9,29.9-33.7,39.5-33.7,39.5l0,0.1
	c-3.2,1.9-6.6,3.6-10.3,4.9c-17.2,6.1-24.6-6.3-23.8-20.4c7.3-2.1,18.1-6.2,27.5-13.2c16.8-12.7,26.8-24.8,16.8-35.1
	c-10-10.3-44.4,3.2-56.4,27.4c-4.3,8.6-5.9,16.1-6.1,22.4c-7.5,6.4-31.1,25.7-37.9,18.6c-4.1-4.3-3.6-14.9,0.8-28.5
	C408,91.5,435.3,59.2,443,47.8c8.1-12,12.7-28,4-31.2c-5.9-2.1-25.8,1.3-44.4,26.9c-18,24.8-26.5,45.6-30.1,62.1l0-0.2
	c0,0-12.5,17.5-32.9,25.5c-13.9,5.4-20.6-6.4-19.8-20.1c7.3-2.1,18.1-6.2,27.5-13.2c16.8-12.7,26.8-24.8,16.8-35.1
	c-10-10.3-44.4,3.2-56.4,27.4c-2.9,5.9-4.6,11.3-5.5,16.1c-1.1,0-8.3,0.1-15.5-2.5c7.7-14.3,15.8-34.7,4.4-42
	c-15.2-9.7-31,10.8-27.5,26.7c1.1,5,3,9.2,5.9,12.6c-6.5,10.4-14.8,20.6-24,26.3c-13,8.1-10-16-1.6-35.9c2.3-5.4,4.9-10.6,7.2-15
	c2-3.5,4.5-6.9,5.3-9.8c0,0,0-0.1,0-0.1c0,0,0-0.1,0-0.2c0.6-2.3,0-4.2-2.8-5.5c-6.6-3.1-14.2,6.4-19.9,22.5
	c-8.7,15.2-20.8,34.8-34.2,43.5c-15.3,10-11.2-11.8-4.2-27.4c12.1-10.7,26.1-24.7,26.5-32.8c0.5-8.7-5.6-8.4-10.6-6.9
	c-7,1.9-16.1,8.9-22.8,19.2c-3.7,5.7-9,16.1-12.5,26.8c-0.2,0.2-11.5,17.3-31.7,25.2c-13.9,5.4-20.6-6.4-19.8-20.1
	c7.3-2.1,18.1-6.2,27.5-13.2c16.8-12.7,26.8-24.8,16.8-35.1c-10-10.3-44.4,3.2-56.4,27.4c-3.3,6.6-5,12.5-5.7,17.8
	c-4.5,1.5-12.5,3.9-22.2,7.2c20-40.4,32.4-76.6,31.1-92.8c-1.7-19.6-18-25.1-28.6-20.7s-30.4,10.9-55,48.5
	C16,74.1,9.1,121.3,27.3,117.5c18.3-3.8,25.5-26.3,25.5-26.3c0-3.8-4.3-1.5-5.8,2.6c-1.4,4-7.8,11.1-13.6,14.2
	c-5.8,3.2-4.9-23.7,10.6-50.2c16.5-28,43.8-42,53.8-39.4c14.7,3.8-11.6,65.2-31,99.7c-0.8,1.5-1.7,3-2.5,4.4
	c-14.3,5.9-29.6,13.4-41.9,22.7c-28.2,21.2-25.5,42.4-15.1,48.1c10.4,5.7,36.4-3.3,63.5-52.4c3.3-6,6.4-11.9,9.4-17.8
	c13.1-4.8,23.4-7.8,25.9-8.5c0.2,9.2,3.3,15.4,5.1,17.8c4.9,6.6,18.4,12.8,34.9,5.7c14-6,24.1-17,26.8-20.2
	c-1.4,9.9,0.2,18.4,7.9,21.9c16.5,7.3,40.2-23.1,44.1-28.5c0,0-4.9,27.5,13.7,29.9c15.1,1.9,32.2-11.8,42-27.4
	c0.7-1.2,1.6-2.5,2.5-4c5,1.7,11.1,2.7,18.4,3.1c-0.2,10.1,3.2,16.9,5.1,19.5c4.9,6.6,18.4,12.8,34.9,5.7
	c16.2-6.9,29-21.8,29.4-22.3c-0.6,15,7.1,28.4,22.2,25.6c14.9-2.8,30.3-17.9,33.9-21.7c1,6.3,3.3,10.7,4.7,12.7
	c6.3,9,24.6,12.6,41.1,5.5c0.3-0.1,0.7-0.3,1-0.5c14.9-5.6,34.4-18.8,49.2-49.8c9.5-0.3,20.3-2.5,20.3-2.5
	c-9,11.9-30.7,48.1-15.1,55c9.4,4.1,23.2-5.6,33.6-15.1c3.6-2.9,9.5-7.9,17.3-15.6c3.3-3.2,14-15.7,19.5-22c3,6.6,6.8,13,8,18.2
	c2.9,12.3-3.2,24.5-12.2,23c-1.5-0.4-3.4-1.3-6.2-3c-5.7-3.3-14.3-10.8-16.8-1.5c-3.8,14.1,14.3,19.5,31.5,14.8
	c17.2-4.6,36.8-23.9,41.7-31.4C649.5,100.1,649.1,93.9,642,103.7z M10.9,180.4c-4-2.7-2.7-12.5,13.5-27.4
	c8.9-8.1,21.7-15.3,34.5-21.2C41.3,161.5,22.1,187.9,10.9,180.4z M158.1,73.1c1.5,2.9,2.4,7.7-9.4,17.4
	c-6.9,5.7-16.4,10.3-23.2,13.2c1-4.1,2.6-8.1,4.9-11.6C141.9,74.4,156.6,70.2,158.1,73.1z M271.1,81c1.1-8.9,7.1-14.5,10.6-14.6
	c3.2-0.1-0.3,12.5-7.9,26.7C271.8,89.5,270.6,85.3,271.1,81z M353.5,73.1c1.5,2.9,2.4,7.7-9.4,17.4c-6.9,5.7-16.4,10.3-23.2,13.2
	c1-4.1,2.6-8.1,4.9-11.6C337.3,74.4,352,70.2,353.5,73.1z M413.2,56.8c11.3-16,27.5-32.3,29.3-27.9c1.8,4.4-7.3,19.2-22.4,37.5
	c-11.7,14.1-23,24.1-27.5,27.9C397.2,82.6,404.2,69.5,413.2,56.8z M478.6,73.1c1.5,2.9,2.4,7.7-9.4,17.4
	c-6.9,5.7-16.4,10.3-23.2,13.2c1-4.1,2.6-8.1,4.9-11.6C462.4,74.4,477.2,70.2,478.6,73.1z M517.7,73.1
	C517.7,73.2,517.7,73.2,517.7,73.1c-3.1,0-5.2-1.1-5.8-3.7C510.7,64,518.8,63.4,517.7,73.1z"/>
</svg>
